# xmcd CD database file
#
# Track frame offsets:
#	150
#	20749
#	43227
#	64295
#	93490
#	117705
#	136095
#	154858
#	176111
#	187490
#	208089
#	226850
#	238925
#	252361
#
# Disc length: 3580 seconds
#
# Revision: 1
# Processed by: cddbd v1.5.1PL0 Copyright (c) Steve Scherf et al.
# Submitted via: cdripper 1,0,31,311
#
DISCID=da0dfa0e
DTITLE=Renaissance - Ekush Shotoke Renaissance
DYEAR=2004
DGENRE=Jazz
TTITLE0=Tumi ki aaj bondhu
TTITLE1=Hey Bangladesh
TTITLE2=Alal Dulal
TTITLE3=Shopno bhora buke
TTITLE4=Koto je poth ghure ghure
TTITLE5=Ekush shotoke gram bangla
TTITLE6=Jani bolte paro
TTITLE7=Janinato buke amar
TTITLE8=Ekush shotoke Bangladesher gonotontro
TTITLE9=Nanaiya nanaiya khota koi
TTITLE10=Raajnitir fusion
TTITLE11=east of atoll
TTITLE12=Audhanmey jouan
TTITLE13=Anjmpey
EXTD=YEAR: 2004
EXTT0=
EXTT1=
EXTT2=
EXTT3=
EXTT4=
EXTT5=
EXTT6=
EXTT7=
EXTT8=
EXTT9=
EXTT10=
EXTT11=
EXTT12=
EXTT13=
PLAYORDER=
